<svg width="71" height="79" viewBox="0 0 71 79" fill="none" xmlns="http://www.w3.org/2000/svg">
<path d="M71 27.413C70.9589 27.0501 70.8796 26.6926 70.7633 26.3465V25.991C70.5737 25.5849 70.3207 25.2115 70.0139 24.885V24.885L46.3472 1.185C46.0212 0.877754 45.6483 0.62442 45.2428 0.4345C45.125 0.417752 45.0055 0.417752 44.8878 0.4345C44.4871 0.204378 44.0445 0.0566596 43.5861 0H27.6111C24.4727 0 21.4629 1.24848 19.2437 3.47079C17.0245 5.69309 15.7778 8.70718 15.7778 11.85V15.8H11.8333C8.69494 15.8 5.68508 17.0485 3.4659 19.2708C1.24672 21.4931 0 24.5072 0 27.65V67.15C0 70.2928 1.24672 73.3069 3.4659 75.5292C5.68508 77.7515 8.69494 79 11.8333 79H43.3889C46.5273 79 49.5371 77.7515 51.7563 75.5292C53.9755 73.3069 55.2222 70.2928 55.2222 67.15V63.2H59.1667C62.3051 63.2 65.3149 61.9515 67.5341 59.7292C69.7533 57.5069 71 54.4928 71 51.35V27.65C71 27.65 71 27.65 71 27.413ZM47.3333 13.4695L57.5494 23.7H51.2778C50.2316 23.7 49.2284 23.2838 48.4886 22.5431C47.7489 21.8023 47.3333 20.7976 47.3333 19.75V13.4695ZM47.3333 67.15C47.3333 68.1976 46.9178 69.2023 46.178 69.9431C45.4383 70.6838 44.435 71.1 43.3889 71.1H11.8333C10.7872 71.1 9.78392 70.6838 9.04419 69.9431C8.30446 69.2023 7.88889 68.1976 7.88889 67.15V27.65C7.88889 26.6024 8.30446 25.5977 9.04419 24.8569C9.78392 24.1162 10.7872 23.7 11.8333 23.7H15.7778V51.35C15.7778 54.4928 17.0245 57.5069 19.2437 59.7292C21.4629 61.9515 24.4727 63.2 27.6111 63.2H47.3333V67.15ZM63.1111 51.35C63.1111 52.3976 62.6955 53.4023 61.9558 54.1431C61.2161 54.8838 60.2128 55.3 59.1667 55.3H27.6111C26.565 55.3 25.5617 54.8838 24.822 54.1431C24.0822 53.4023 23.6667 52.3976 23.6667 51.35V11.85C23.6667 10.8024 24.0822 9.7977 24.822 9.05693C25.5617 8.31616 26.565 7.9 27.6111 7.9H39.4444V19.75C39.4444 22.8928 40.6912 25.9069 42.9103 28.1292C45.1295 30.3515 48.1394 31.6 51.2778 31.6H63.1111V51.35Z" fill="#05CCFF"/>
</svg>
